<svg xmlns="http://www.w3.org/2000/svg" xmlns:xlink="http://www.w3.org/1999/xlink" version="1.1"
	width="1024" height="768" viewBox="0 0 1024 768" xml:space="preserve">
<desc>Created with Fabric.js 5.3.0</desc>
<defs>
</defs>
<g transform="matrix(1 0 0 1 512 384)" id="backgroundElement"  >
<rect style="stroke: none; stroke-width: 1; stroke-dasharray: none; stroke-linecap: butt; stroke-dashoffset: 0; stroke-linejoin: miter; stroke-miterlimit: 4; fill: rgb(0,0,0); fill-rule: nonzero; opacity: 1;"  x="-512" y="-384" rx="0" ry="0" width="1024" height="768" />
</g>
<g transform="matrix(1 0 0 1 512 384)"  >
<g style=""   >
		<g transform="matrix(1 0 0 1 -140.41 52.39)" id="path342981"  >
<path style="stroke: rgb(102,211,255); stroke-width: 0.91; stroke-dasharray: none; stroke-linecap: butt; stroke-dashoffset: 0; stroke-linejoin: miter; stroke-miterlimit: 2; fill: rgb(102,211,255); fill-rule: nonzero; opacity: 1;"  transform=" translate(-371.59, -436.61)" d="M 371.94 432.07 Q 374.0658 432.07 375.7256 433.06007999999997 Q 377.4146 434.02103999999997 378.34639999999996 435.79738 Q 379.27824 437.54458 379.27824 439.78677999999996 Q 379.27824 441.99987999999996 378.34639999999996 443.74708 Q 377.41455999999994 445.49428 375.75469999999996 446.48438 Q 374.09489999999994 447.44534 371.96909999999997 447.44534 Q 369.87249999999995 447.44534 368.29999999999995 446.51349999999996 Q 366.72749999999996 445.55253999999996 365.85389999999995 443.86359999999996 L 365.85389999999995 447.3871 L 363.90289999999993 447.3871 L 363.90289999999993 425.78009999999995 L 365.85389999999995 425.78009999999995 L 365.85389999999995 435.6517999999999 Q 366.69837999999993 433.9627999999999 368.2708999999999 433.03099999999995 Q 369.87249999999995 432.07003999999995 371.93999999999994 432.07003999999995 z M 371.59056 445.756 Q 373.22126 445.756 374.53166 444.99888 Q 375.84206 444.21263999999996 376.57006 442.84398 Q 377.29806 441.47538 377.29806 439.72818 Q 377.29806 438.01008 376.57006 436.64148 Q 375.84206 435.27288 374.53166 434.51568 Q 373.22126 433.72943999999995 371.59056 433.72943999999995 Q 369.93075999999996 433.72943999999995 368.62036 434.51568 Q 367.33906 435.27279999999996 366.58196 436.64148 Q 365.85396 438.01008 365.85396 439.72818 Q 365.85396 441.47538000000003 366.58196 442.84398 Q 367.30996 444.21257999999995 368.62036 444.99888 Q 369.93076 445.756 371.59056 445.756 z" stroke-linecap="round" />
</g>
		<g transform="matrix(1 0 0 1 -125.76 52.65)" id="path342983"  >
<path style="stroke: rgb(102,211,255); stroke-width: 0.91; stroke-dasharray: none; stroke-linecap: butt; stroke-dashoffset: 0; stroke-linejoin: miter; stroke-miterlimit: 2; fill: rgb(102,211,255); fill-rule: nonzero; opacity: 1;"  transform=" translate(-386.24, -436.88)" d="M 385.26 432.13 L 387.211 432.13 L 387.211 447.389 L 385.26 447.389 z M 386.25007999999997 426.3642 Q 386.83248 426.3642 387.21103999999997 426.77188 Q 387.58959999999996 427.15044 387.58959999999996 427.73284 Q 387.58959999999996 428.31524 387.18191999999993 428.72292 Q 386.80335999999994 429.1306 386.2500799999999 429.1306 Q 385.6676799999999 429.1306 385.25999999999993 428.72292 Q 384.88143999999994 428.31523999999996 384.88143999999994 427.73284 Q 384.88143999999994 427.15044000000006 385.25999999999993 426.77188 Q 385.66767999999996 426.3642 386.2500799999999 426.3642 z" stroke-linecap="round" />
</g>
		<g transform="matrix(1 0 0 1 -114.3 53.83)" id="path342985"  >
<path style="stroke: rgb(102,211,255); stroke-width: 0.91; stroke-dasharray: none; stroke-linecap: butt; stroke-dashoffset: 0; stroke-linejoin: miter; stroke-miterlimit: 2; fill: rgb(102,211,255); fill-rule: nonzero; opacity: 1;"  transform=" translate(-397.7, -438.06)" d="M 402.39 446.34 Q 400.8175 447.4174 399.0121 447.47569999999996 Q 397.26489999999995 447.47569999999996 396.2457 446.39829999999995 Q 395.22650000000004 445.32089999999994 395.2265 443.16599999999994 L 395.2265 434.08059999999995 L 393.04249999999996 434.08059999999995 L 393.01339999999993 432.56639999999993 L 395.22649999999993 432.56639999999993 L 395.22649999999993 428.63519999999994 L 397.17749999999995 428.63519999999994 L 397.17749999999995 432.56639999999993 L 402.12789999999995 432.5372999999999 L 402.12789999999995 434.0806999999999 L 397.17749999999995 434.0806999999999 L 397.17749999999995 442.84579999999994 Q 397.17749999999995 445.6703999999999 399.2741 445.6703999999999 Q 400.4389 445.6703999999999 401.80749999999995 444.8550399999999 z" stroke-linecap="round" />
</g>
		<g transform="matrix(1 0 0 1 -91.66 55.5)" id="path342987"  >
<path style="stroke: rgb(102,211,255); stroke-width: 0.91; stroke-dasharray: none; stroke-linecap: butt; stroke-dashoffset: 0; stroke-linejoin: miter; stroke-miterlimit: 2; fill: rgb(102,211,255); fill-rule: nonzero; opacity: 1;"  transform=" translate(-420.34, -439.73)" d="M 427.21 432.07 Q 429.91819999999996 432.07 431.4324 433.6425 Q 432.9466 435.215 432.9466 438.0105 L 432.9466 447.3871 L 430.96639999999996 447.3871 L 430.96639999999996 438.47639999999996 Q 430.96639999999996 436.29239999999993 429.7725 435.09849999999994 Q 428.60769999999997 433.87549999999993 426.54019999999997 433.87549999999993 Q 424.09409999999997 433.93369999999993 422.6964 435.56449999999995 Q 421.32779999999997 437.19519999999994 421.32779999999997 439.87429999999995 L 421.32779999999997 447.3872999999999 L 419.34759999999994 447.3872999999999 L 419.34759999999994 438.4765999999999 Q 419.34759999999994 436.2925999999999 418.15369999999996 435.0986999999999 Q 416.98889999999994 433.8756999999999 414.92139999999995 433.8756999999999 Q 412.47529999999995 433.9338999999999 411.07759999999996 435.5646999999999 Q 409.67979999999994 437.1953999999999 409.67979999999994 439.8744999999999 L 409.67979999999994 447.3874999999999 L 407.7287999999999 447.3874999999999 L 407.7287999999999 432.12849999999986 L 409.67979999999994 432.12849999999986 L 409.67979999999994 435.71029999999985 Q 410.43691999999993 433.9048999999998 411.92199999999997 433.00209999999987 Q 413.4362 432.0993799999999 415.5911 432.07025999999985 Q 417.7751 432.07025999999985 419.202 433.14765999999986 Q 420.658 434.22505999999987 421.1239 436.17615999999987 Q 421.82277999999997 434.13775999999984 423.3661 433.1185599999999 Q 424.9386 432.0993599999999 427.2099 432.0702599999999 z" stroke-linecap="round" />
</g>
		<g transform="matrix(1 0 0 1 -66.95 55.55)" id="path342989"  >
<path style="stroke: rgb(102,211,255); stroke-width: 0.91; stroke-dasharray: none; stroke-linecap: butt; stroke-dashoffset: 0; stroke-linejoin: miter; stroke-miterlimit: 2; fill: rgb(102,211,255); fill-rule: nonzero; opacity: 1;"  transform=" translate(-445.05, -439.78)" d="M 449.55 447.39 L 449.5209 444.8274 Q 448.61818 446.1669 447.1622 446.8367 Q 445.70619999999997 447.47734 443.8134 447.47734 Q 442.27 447.47734 441.0761 446.89494 Q 439.9113 446.28342000000004 439.2707 445.23514 Q 438.63005999999996 444.18684 438.63005999999996 442.87644 Q 438.63005999999996 440.89624 440.14426 439.76064 Q 441.68766 438.62494000000004 444.36665999999997 438.62494000000004 L 449.49175999999994 438.62494000000004 L 449.49175999999994 437.46014 Q 449.49175999999994 435.65474 448.41435999999993 434.66464 Q 447.3369599999999 433.67456000000004 445.26935999999995 433.67456000000004 Q 442.82325999999995 433.67456000000004 440.34806 435.50916000000007 L 439.47445999999997 434.1696600000001 Q 441.01786 433.09226000000007 442.41555999999997 432.5971600000001 Q 443.81336 432.0730000000001 445.61875999999995 432.0730000000001 Q 448.3851599999999 432.0730000000001 449.89935999999994 433.4708000000001 Q 451.41355999999996 434.8394000000001 451.44275999999996 437.2855000000001 L 451.47186 447.39050000000015 z M 444.1628 445.84659999999997 Q 446.20120000000003 445.84659999999997 447.599 444.91475999999994 Q 449.0259 443.95379999999994 449.5209 442.23575999999997 L 449.5209 440.13915999999995 L 444.5996 440.13915999999995 Q 442.5903 440.13915999999995 441.54200000000003 440.80891999999994 Q 440.49370000000005 441.47867999999994 440.49370000000005 442.81821999999994 Q 440.49370000000005 444.18681999999995 441.48378 445.03131999999994 Q 442.50298000000004 445.84667999999994 444.16278 445.84667999999994 z" stroke-linecap="round" />
</g>
		<g transform="matrix(1 0 0 1 -49.72 55.5)" id="path342991"  >
<path style="stroke: rgb(102,211,255); stroke-width: 0.91; stroke-dasharray: none; stroke-linecap: butt; stroke-dashoffset: 0; stroke-linejoin: miter; stroke-miterlimit: 2; fill: rgb(102,211,255); fill-rule: nonzero; opacity: 1;"  transform=" translate(-462.28, -439.73)" d="M 460.47 435.68 Q 461.22712 433.9328 462.6249 433.0301 Q 464.0518 432.09826 466.0319 432.06914 L 466.0319 433.90374 Q 463.61490000000003 433.87464 462.1298 435.33064 Q 460.67379999999997 436.75754 460.46999999999997 439.23274000000004 L 460.46999999999997 447.38634 L 458.51899999999995 447.38634 L 458.51899999999995 432.12734 L 460.46999999999997 432.12734 z" stroke-linecap="round" />
</g>
		<g transform="matrix(1 0 0 1 -38.03 53.83)" id="path342993"  >
<path style="stroke: rgb(102,211,255); stroke-width: 0.91; stroke-dasharray: none; stroke-linecap: butt; stroke-dashoffset: 0; stroke-linejoin: miter; stroke-miterlimit: 2; fill: rgb(102,211,255); fill-rule: nonzero; opacity: 1;"  transform=" translate(-473.97, -438.06)" d="M 478.66 446.34 Q 477.08750000000003 447.4174 475.2821 447.47569999999996 Q 473.5349 447.47569999999996 472.51570000000004 446.39829999999995 Q 471.4965000000001 445.32089999999994 471.4965 443.16599999999994 L 471.4965 434.08059999999995 L 469.3125 434.08059999999995 L 469.2834 432.56639999999993 L 471.49649999999997 432.56639999999993 L 471.49649999999997 428.63519999999994 L 473.4475 428.63519999999994 L 473.4475 432.56639999999993 L 478.3979 432.5372999999999 L 478.3979 434.0806999999999 L 473.4475 434.0806999999999 L 473.4475 442.84579999999994 Q 473.4475 445.6703999999999 475.5441 445.6703999999999 Q 476.7089 445.6703999999999 478.0775 444.8550399999999 z" stroke-linecap="round" />
</g>
		<g transform="matrix(1 0 0 1 -25.59 54.35)" id="path342995"  >
<path style="stroke: rgb(102,211,255); stroke-width: 0.91; stroke-dasharray: none; stroke-linecap: butt; stroke-dashoffset: 0; stroke-linejoin: miter; stroke-miterlimit: 2; fill: rgb(102,211,255); fill-rule: nonzero; opacity: 1;"  transform=" translate(-486.41, -438.57)" d="M 483.03 437.86 L 489.7858 437.86 L 489.7858 439.2869 L 483.03 439.2869 z" stroke-linecap="round" />
</g>
		<g transform="matrix(1 0 0 1 -10.53 55.55)" id="path342997"  >
<path style="stroke: rgb(102,211,255); stroke-width: 0.91; stroke-dasharray: none; stroke-linecap: butt; stroke-dashoffset: 0; stroke-linejoin: miter; stroke-miterlimit: 2; fill: rgb(102,211,255); fill-rule: nonzero; opacity: 1;"  transform=" translate(-501.47, -439.78)" d="M 505.97 447.39 L 505.9409 444.8274 Q 505.03818 446.1669 503.5822 446.8367 Q 502.1262 447.47734 500.2334 447.47734 Q 498.69 447.47734 497.4961 446.89494 Q 496.3313 446.28342000000004 495.6907 445.23514 Q 495.05006 444.18684 495.05006 442.87644 Q 495.05006 440.89624 496.56426 439.76064 Q 498.10766 438.62494000000004 500.78666 438.62494000000004 L 505.91175999999996 438.62494000000004 L 505.91175999999996 437.46014 Q 505.91175999999996 435.65474 504.83435999999995 434.66464 Q 503.75695999999994 433.67456000000004 501.68935999999997 433.67456000000004 Q 499.24325999999996 433.67456000000004 496.76806 435.50916000000007 L 495.89446 434.1696600000001 Q 497.43786 433.09226000000007 498.83556 432.5971600000001 Q 500.23336 432.0730000000001 502.03875999999997 432.0730000000001 Q 504.80515999999994 432.0730000000001 506.31935999999996 433.4708000000001 Q 507.83356 434.8394000000001 507.86276 437.2855000000001 L 507.89186 447.39050000000015 z M 500.5828 445.84659999999997 Q 502.62120000000004 445.84659999999997 504.019 444.91475999999994 Q 505.4459 443.95379999999994 505.9409 442.23575999999997 L 505.9409 440.13915999999995 L 501.0196 440.13915999999995 Q 499.01030000000003 440.13915999999995 497.96200000000005 440.80891999999994 Q 496.91370000000006 441.47867999999994 496.91370000000006 442.81821999999994 Q 496.91370000000006 444.18681999999995 497.90378000000004 445.03131999999994 Q 498.92298000000005 445.84667999999994 500.58278 445.84667999999994 z" stroke-linecap="round" />
</g>
		<g transform="matrix(1 0 0 1 10.77 58.33)" id="path342999"  >
<path style="stroke: rgb(102,211,255); stroke-width: 0.91; stroke-dasharray: none; stroke-linecap: butt; stroke-dashoffset: 0; stroke-linejoin: miter; stroke-miterlimit: 2; fill: rgb(102,211,255); fill-rule: nonzero; opacity: 1;"  transform=" translate(-522.77, -442.55)" d="M 523.12 432.07 Q 525.2458 432.07 526.9056 433.06007999999997 Q 528.5946 434.02103999999997 529.5264000000001 435.79738 Q 530.45824 437.54458 530.45824 439.78677999999996 Q 530.45824 441.99987999999996 529.5264000000001 443.74708 Q 528.5945600000001 445.49428 526.9347000000001 446.48438 Q 525.2749000000001 447.44534 523.1491000000001 447.44534 Q 521.0525000000001 447.44534 519.4800000000001 446.51349999999996 Q 517.9075000000001 445.55253999999996 517.0339000000001 443.86359999999996 L 517.0339000000001 453.03639999999996 L 515.0829000000001 453.03639999999996 L 515.0829000000001 432.12839999999994 L 517.0339000000001 432.12839999999994 L 517.0339000000001 435.65189999999996 Q 517.8783800000001 433.96289999999993 519.4509000000002 433.0311 Q 521.0525000000001 432.07014 523.1200000000001 432.07014 z M 522.77056 445.756 Q 524.4012600000001 445.756 525.71166 444.99888 Q 527.02206 444.21263999999996 527.7500600000001 442.84398 Q 528.47806 441.47538 528.47806 439.72818 Q 528.47806 438.01008 527.7500600000001 436.64148 Q 527.0220600000001 435.27288 525.71166 434.51568 Q 524.4012600000001 433.72943999999995 522.77056 433.72943999999995 Q 521.11076 433.72943999999995 519.8003600000001 434.51568 Q 518.5190600000001 435.27279999999996 517.76196 436.64148 Q 517.0339600000001 438.01008 517.0339600000001 439.72818 Q 517.0339600000001 441.47538000000003 517.76196 442.84398 Q 518.48996 444.21257999999995 519.8003600000001 444.99888 Q 521.11076 445.756 522.77056 445.756 z" stroke-linecap="round" />
</g>
		<g transform="matrix(1 0 0 1 25.41 52.65)" id="path343001"  >
<path style="stroke: rgb(102,211,255); stroke-width: 0.91; stroke-dasharray: none; stroke-linecap: butt; stroke-dashoffset: 0; stroke-linejoin: miter; stroke-miterlimit: 2; fill: rgb(102,211,255); fill-rule: nonzero; opacity: 1;"  transform=" translate(-537.41, -436.88)" d="M 536.43 432.13 L 538.381 432.13 L 538.381 447.389 L 536.43 447.389 z M 537.42008 426.3642 Q 538.00248 426.3642 538.38104 426.77188 Q 538.7596 427.15044 538.7596 427.73284 Q 538.7596 428.31524 538.35192 428.72292 Q 537.97336 429.1306 537.42008 429.1306 Q 536.83768 429.1306 536.43 428.72292 Q 536.05144 428.31523999999996 536.05144 427.73284 Q 536.05144 427.15044000000006 536.43 426.77188 Q 536.83768 426.3642 537.42008 426.3642 z" stroke-linecap="round" />
</g>
		<g transform="matrix(1 0 0 1 53.45 55.2)" id="path343003"  >
<path style="stroke: rgb(102,211,255); stroke-width: 0.91; stroke-dasharray: none; stroke-linecap: butt; stroke-dashoffset: 0; stroke-linejoin: miter; stroke-miterlimit: 2; fill: rgb(102,211,255); fill-rule: nonzero; opacity: 1;"  transform=" translate(-565.45, -439.43)" d="M 572.09 443.8 Q 572.09 444.79008 572.58504 445.3725 Q 573.1092000000001 445.92578 573.86634 445.92578 Q 574.7690600000001 445.92578 575.4970400000001 445.13953999999995 Q 576.2541600000001 444.35329999999993 576.6618400000001 442.9555399999999 Q 577.09864 441.52863999999994 577.09864 439.69413999999995 Q 577.09864 436.40353999999996 575.64264 433.78273999999993 Q 574.18664 431.1619399999999 571.56584 429.6768399999999 Q 568.94504 428.1626399999999 565.59624 428.1626399999999 Q 562.3056399999999 428.1626399999999 559.59754 429.6768399999999 Q 556.88934 431.1619399999999 555.34604 433.8118399999999 Q 553.80264 436.4326399999999 553.80264 439.6649399999999 Q 553.80264 442.80993999999987 555.28774 445.31423999999987 Q 556.77284 447.81853999999987 559.36454 449.24543999999986 Q 561.9853400000001 450.67233999999985 565.2176400000001 450.67233999999985 Q 566.52804 450.67233999999985 568.0422400000001 450.2646599999998 Q 569.5564400000002 449.8569799999998 570.63394 449.1580599999998 L 571.36194 450.4975599999998 Q 570.16804 451.2546799999998 568.42084 451.7205599999998 Q 566.70274 452.1864799999998 565.21764 452.1864799999998 Q 561.54854 452.1864799999998 558.5782399999999 450.5557799999998 Q 555.6371399999999 448.9541799999998 553.94814 446.1003799999998 Q 552.25914 443.2174799999998 552.25914 439.6648799999998 Q 552.25914 435.9957799999998 554.00634 433.0254799999998 Q 555.75354 430.0552799999998 558.78204 428.3662799999998 Q 561.83964 426.67727999999977 565.5961400000001 426.67727999999977 Q 569.3235400000001 426.67727999999977 572.2937400000001 428.3662799999998 Q 575.26394 430.0260799999998 576.9529400000001 432.9963799999998 Q 578.6419400000001 435.9374799999998 578.6419400000001 439.63577999999984 Q 578.6419400000001 441.93627999999984 578.0013000000001 443.65437999999983 Q 577.3897800000001 445.3724799999998 576.2541000000001 446.3333799999998 Q 575.1475000000002 447.26521999999983 573.6624000000002 447.26521999999983 Q 572.4102000000001 447.26521999999983 571.5658000000002 446.5372199999998 Q 570.7504400000001 445.78009999999983 570.6339600000002 444.4697199999998 L 570.6048600000003 443.2467199999998 Q 569.7312600000002 444.93571999999983 568.1878600000002 445.8675199999998 Q 566.6444600000002 446.7702399999998 564.6934600000002 446.7702399999998 Q 562.7424600000002 446.7702399999998 561.1408600000002 445.8675199999998 Q 559.5392600000002 444.93567999999976 558.5782600000002 443.3049199999998 Q 557.6464200000003 441.6451199999998 557.6464200000003 439.5775199999998 Q 557.6464200000003 437.5391199999998 558.5200200000003 435.87931999999984 Q 559.3936200000003 434.2195199999999 560.9661200000003 433.28761999999983 Q 562.5386200000003 432.32665999999983 564.5479200000003 432.32665999999983 Q 566.5572200000004 432.32665999999983 568.1005200000003 433.3167399999998 Q 569.6439200000003 434.2776999999998 570.2263200000003 435.6172399999998 L 570.2263200000003 432.50143999999983 L 572.0900200000003 432.50143999999983 z M 564.8391 434.103 Q 563.354 434.103 562.1601 434.831 Q 560.9953 435.52988 560.3255 436.78200000000004 Q 559.65574 438.00500000000005 559.65574 439.51930000000004 Q 559.65574 441.06270000000006 560.3255 442.31480000000005 Q 560.99526 443.56700000000006 562.1601 444.2950000000001 Q 563.354 445.0230000000001 564.8683000000001 445.0230000000001 Q 566.4117000000001 445.0230000000001 567.6056000000001 444.3241200000001 Q 568.7995000000001 443.5961200000001 569.4693000000001 442.3439200000001 Q 570.1390600000001 441.09172000000007 570.1390600000001 439.5193200000001 Q 570.1390600000001 437.9759200000001 569.4693000000001 436.75292000000013 Q 568.7995400000001 435.5299200000002 567.5765000000001 434.83102000000014 Q 566.3826000000001 434.10302000000013 564.8392000000001 434.10302000000013 z" stroke-linecap="round" />
</g>
		<g transform="matrix(1 0 0 1 89.29 52.98)" id="path343005"  >
<path style="stroke: rgb(102,211,255); stroke-width: 0.91; stroke-dasharray: none; stroke-linecap: butt; stroke-dashoffset: 0; stroke-linejoin: miter; stroke-miterlimit: 2; fill: rgb(102,211,255); fill-rule: nonzero; opacity: 1;"  transform=" translate(-601.29, -437.21)" d="M 607.68 427.03 L 609.6601999999999 427.03 L 609.6601999999999 447.385 L 607.5343999999999 447.385 L 594.9253999999999 430.146 L 594.9253999999999 447.385 L 592.9160999999998 447.385 L 592.9160999999998 427.03 L 595.0418999999998 427.03 L 607.6798999999999 444.26899999999995 z" stroke-linecap="round" />
</g>
		<g transform="matrix(1 0 0 1 113.67 52.98)" id="path343007"  >
<path style="stroke: rgb(102,211,255); stroke-width: 0.91; stroke-dasharray: none; stroke-linecap: butt; stroke-dashoffset: 0; stroke-linejoin: miter; stroke-miterlimit: 2; fill: rgb(102,211,255); fill-rule: nonzero; opacity: 1;"  transform=" translate(-625.66, -437.21)" d="M 625.46 427.03 Q 629.2456000000001 427.03 631.3131000000001 428.80629999999996 Q 633.3806000000001 430.5535 633.3806000000001 433.78579999999994 Q 633.3806000000001 437.1345999999999 631.3131000000001 438.96919999999994 Q 629.2456000000001 440.80379999999997 625.46 440.80379999999997 L 619.9563 440.80379999999997 L 619.9563 447.38489999999996 L 617.947 447.38489999999996 L 617.947 427.02989999999994 z M 625.3726 438.998 Q 628.2846000000001 438.998 629.8571000000001 437.6876 Q 631.4587 436.3481 631.4587 433.8438 Q 631.4587 431.3977 629.8862 430.1164 Q 628.3137 428.8351 625.3726 428.8351 L 619.9563 428.8351 L 619.9563 438.9981 z" stroke-linecap="round" />
</g>
		<g transform="matrix(1 0 0 1 137.65 52.96)" id="path343009"  >
<path style="stroke: rgb(102,211,255); stroke-width: 0.91; stroke-dasharray: none; stroke-linecap: butt; stroke-dashoffset: 0; stroke-linejoin: miter; stroke-miterlimit: 2; fill: rgb(102,211,255); fill-rule: nonzero; opacity: 1;"  transform=" translate(-649.65, -437.19)" d="M 639.21 427 L 641.7143 427 L 649.6931999999999 442.288 L 657.5846999999999 427 L 660.0889999999998 427 L 660.0889999999998 447.384 L 658.2252999999998 447.384 L 658.1961999999999 429.796 L 650.2172999999999 445.2 L 649.1107 445.2 L 641.1026999999999 429.796 L 641.1026999999999 447.384 L 639.2099 447.384 z" stroke-linecap="round" />
</g>
		<g transform="matrix(1 0 0 1 -274.24 -32)" id="path343012"  >
<path style="stroke: none; stroke-width: 0; stroke-dasharray: none; stroke-linecap: butt; stroke-dashoffset: 0; stroke-linejoin: miter; stroke-miterlimit: 2; fill: rgb(255,255,255); fill-rule: nonzero; opacity: 1;"  transform=" translate(-237.76, -352.23)" d="M 207.95 387.5 L 216.89239999999998 387.5 L 216.89239999999998 347.85 L 207.95239999999998 336.23 z M 258.62399999999997 317.054 L 258.62399999999997 371.90099999999995 L 214.90599999999995 316.9549999999999 L 207.95079999999996 316.9549999999999 L 207.95079999999996 322.32039999999995 L 216.89319999999995 333.64739999999995 L 260.01519999999994 387.50039999999996 L 267.56659999999994 387.50039999999996 L 267.56659999999994 317.0544 z" stroke-linecap="round" />
</g>
		<g transform="matrix(1 0 0 1 -207.25 -22.61)" id="path343014"  >
<path style="stroke: none; stroke-width: 0; stroke-dasharray: none; stroke-linecap: butt; stroke-dashoffset: 0; stroke-linejoin: miter; stroke-miterlimit: 2; fill: rgb(255,255,255); fill-rule: nonzero; opacity: 1;"  transform=" translate(-304.75, -361.61)" d="M 304.7 388.49 C 308.575 388.49 312.152 387.79448 315.332 386.3041 C 318.5115 384.9131 321.29359999999997 382.9259 323.6782 380.44190000000003 C 325.9635 378.05730000000005 327.752 375.17580000000004 329.0436 371.8969 C 330.2359 368.7174 330.93140000000005 365.2398 330.93140000000005 361.66290000000004 C 330.93140000000005 358.08590000000004 330.23588000000007 354.60830000000004 328.9442000000001 351.3299 C 327.6525000000001 348.1504 325.8640000000001 345.26890000000003 323.57880000000006 342.7849 C 321.29350000000005 340.4003 318.51140000000004 338.4131 315.3319000000001 336.9227 C 312.05300000000005 335.5317 308.4761000000001 334.7368 304.69990000000007 334.7368 C 300.82490000000007 334.7368 297.2479000000001 335.53168 294.06790000000007 336.9227 C 290.88840000000005 338.41310000000004 288.1063000000001 340.4003 285.8210000000001 342.7849 C 283.5357000000001 345.2689 281.7472000000001 348.1503 280.45560000000006 351.3299 C 279.16390000000007 354.60880000000003 278.56780000000003 358.0864 278.56780000000003 361.66290000000004 C 278.56780000000003 365.23990000000003 279.16396000000003 368.71750000000003 280.45560000000006 371.8969 C 281.64790000000005 375.17580000000004 283.43640000000005 378.0572 285.72170000000006 380.44190000000003 C 288.00700000000006 382.9259 290.7891000000001 384.91310000000004 293.96860000000004 386.3041 C 297.14810000000006 387.7945 300.72510000000005 388.49 304.69960000000003 388.49 z M 287.51099999999997 361.762 C 287.51099999999997 359.0793 287.90844 356.5953 288.80269999999996 354.2106 C 289.69694 351.826 290.88929999999993 349.8388 292.479 348.0503 C 294.0688 346.2618 295.8572 344.8708 297.9438 343.8772 C 300.03040000000004 342.88360000000006 302.3156 342.2874 304.7003 342.2874 C 307.0849 342.2874 309.27090000000004 342.7842 311.35740000000004 343.7778 C 313.444 344.7714 315.33180000000004 346.1624 316.9216 347.9509 C 318.5114 349.7394 319.7037 351.72659999999996 320.59790000000004 354.1112 C 321.49214000000006 356.4958 321.98890000000006 358.9798 321.98890000000006 361.5632 C 321.98890000000006 364.3453 321.49210000000005 366.8293 320.59790000000004 369.21389999999997 C 319.70366 371.59849999999994 318.51130000000006 373.5857 316.9216 375.3742 C 315.3318 377.1627 313.444 378.45439999999996 311.3574 379.448 C 309.27079999999995 380.4416 307.0849 380.9384 304.70029999999997 380.9384 C 302.31569999999994 380.9384 300.0304 380.4416 297.94379999999995 379.448 C 295.8571999999999 378.45439999999996 294.06879999999995 377.1627 292.4789999999999 375.3742 C 290.8891999999999 373.6851 289.6968999999999 371.69789999999995 288.8026999999999 369.3132 C 287.9084599999999 367.0279 287.5109999999999 364.5439 287.5109999999999 361.7618 z" stroke-linecap="round" />
</g>
		<g transform="matrix(1 0 0 1 -146.72 -32.5)" id="path343016"  >
<path style="stroke: none; stroke-width: 0; stroke-dasharray: none; stroke-linecap: butt; stroke-dashoffset: 0; stroke-linejoin: miter; stroke-miterlimit: 2; fill: rgb(255,255,255); fill-rule: nonzero; opacity: 1;"  transform=" translate(-365.28, -351.73)" d="M 362.99 388.49 C 366.7657 388.49 370.3426 387.59576 373.721 385.7079 C 377.0992 383.82009999999997 379.8813 381.1373 381.9679 377.7591 L 381.9679 382.1309 C 381.9679 383.7207 382.56406 385.0123 383.8557 386.2047 C 385.1474 387.397 386.6378 387.8938 388.4263 387.8938 C 388.92311 387.8938 389.41991 387.8938 390.01610000000005 387.7944 C 390.61226000000005 387.7944 391.30780000000004 387.695 392.30140000000006 387.49631999999997 L 392.30140000000006 379.94491999999997 C 390.41360000000003 379.94491999999997 389.51930000000004 378.85191999999995 389.51930000000004 376.76541999999995 L 389.51930000000004 314.9634199999999 L 380.77560000000005 314.9634199999999 L 380.77560000000005 345.9634199999999 C 378.7884000000001 342.88321999999994 376.20500000000004 340.2005199999999 372.92620000000005 338.0146199999999 C 369.64730000000003 335.8287199999999 365.97100000000006 334.7357199999999 361.79820000000007 334.7357199999999 C 358.32060000000007 334.7357199999999 355.14110000000005 335.5305999999999 352.2596000000001 336.9216199999999 C 349.3782000000001 338.3126199999999 346.89420000000007 340.2998199999999 344.8076000000001 342.6845199999999 C 342.7210000000001 345.1685199999999 341.13130000000007 348.04991999999993 339.9390000000001 351.3288199999999 C 338.7467000000001 354.60771999999986 338.2499000000001 358.0853199999999 338.2499000000001 361.6618199999999 C 338.2499000000001 365.2388199999999 338.8460600000001 368.7164199999999 340.0384000000001 371.8958199999999 C 341.23070000000007 375.1747199999999 343.01920000000007 378.0561199999999 345.2051000000001 380.4408199999999 C 347.3910000000001 382.9248199999999 349.97440000000006 384.9120199999999 353.0545000000001 386.3030199999999 C 356.03530000000006 387.7934199999999 359.41350000000006 388.4889199999999 362.99050000000005 388.4889199999999 z M 365.0766 380.9386 C 362.4932 380.9386 360.20799999999997 380.4418 358.022 379.4482 C 355.8361 378.45459999999997 354.0476 377.0636 352.4578 375.2751 C 350.868 373.586 349.57640000000004 371.5988 348.68210000000005 369.21410000000003 C 347.68851000000006 366.82950000000005 347.29110000000003 364.3455 347.29110000000003 361.76210000000003 C 347.29110000000003 359.37750000000005 347.68855 356.99280000000005 348.4834 354.6082 C 349.27828 352.22360000000003 350.37120000000004 350.137 351.8616 348.3485 C 353.352 346.56 355.14050000000003 345.0696 357.22700000000003 343.9767 C 359.3136 342.8837 361.69820000000004 342.2876 364.2816 342.2876 C 365.87140000000005 342.2876 367.56050000000005 342.68504 369.24960000000004 343.2812 C 370.93870000000004 343.87736 372.52850000000007 344.77160000000003 374.01890000000003 345.8646 C 375.5093 346.95759999999996 376.9003 348.2492 378.09270000000004 349.7396 C 379.285 351.23 380.1793 352.8198 380.77540000000005 354.4095 L 380.77540000000005 369.3135 C 380.37795000000006 370.9033 379.68240000000003 372.493 378.58950000000004 373.8841 C 377.4965 375.2751 376.20490000000007 376.5668 374.71450000000004 377.5604 C 373.2241 378.65340000000003 371.63430000000005 379.44820000000004 369.94520000000006 380.0444 C 368.25610000000006 380.64056 366.66630000000004 380.93864 365.07660000000004 380.93864 z" stroke-linecap="round" />
</g>
		<g transform="matrix(1 0 0 1 -85.13 -22.61)" id="path343018"  >
<path style="stroke: none; stroke-width: 0; stroke-dasharray: none; stroke-linecap: butt; stroke-dashoffset: 0; stroke-linejoin: miter; stroke-miterlimit: 2; fill: rgb(255,255,255); fill-rule: nonzero; opacity: 1;"  transform=" translate(-426.87, -361.61)" d="M 427.07 388.49 C 429.6534 388.49 432.1374 388.19192 434.522 387.4964 C 436.90659999999997 386.90024 438.9932 386.006 440.9804 384.8137 C 442.96759999999995 383.6214 444.6567 382.2303 446.14709999999997 380.6406 C 447.6375 379.0508 448.8298 377.3617 449.72409999999996 375.3745 L 442.17269999999996 373.28790000000004 C 441.57653999999997 374.67890000000006 440.78169999999994 375.8713 439.7881 376.86490000000003 C 438.79449999999997 377.95790000000005 437.6022 378.8521 436.3105 379.54760000000005 C 434.91949999999997 380.34248 433.5284 380.93860000000006 432.038 381.33610000000004 C 430.4482 381.73354000000006 428.9578 381.93226000000004 427.3681 381.93226000000004 C 425.0828 381.93226000000004 422.8969 381.53482 420.90970000000004 380.64056000000005 C 418.92250000000007 379.8456800000001 417.13400000000007 378.6533600000001 415.5443 377.06356000000005 C 413.9545 375.57316000000003 412.66290000000004 373.78466000000003 411.6693 371.59876 C 410.6757 369.51216000000005 410.0795 367.12756 409.8808 364.54416000000003 L 452.90380000000005 364.54416000000003 C 452.90380000000005 364.24608 453.00320000000005 363.74928000000006 453.00320000000005 363.15316 C 453.00320000000005 362.557 453.10260000000005 361.96086 453.10260000000005 361.16596000000004 C 453.10260000000005 357.78776000000005 452.40708000000006 354.40946 451.2148 351.22996000000006 C 450.02252 348.0504600000001 448.23400000000004 345.1689600000001 446.04810000000003 342.78436000000005 C 443.7628 340.3997600000001 440.9807 338.41256000000004 437.80120000000005 336.9221600000001 C 434.62170000000003 335.53116000000006 431.04470000000003 334.7362600000001 427.16920000000005 334.7362600000001 C 423.19480000000004 334.7362600000001 419.61780000000005 335.53114000000005 416.43820000000005 336.9221600000001 C 413.15930000000003 338.3131600000001 410.3772000000001 340.30036000000007 407.99260000000004 342.6850600000001 C 405.60800000000006 345.16906000000006 403.81950000000006 348.0504600000001 402.5278 351.2300600000001 C 401.2361 354.5089600000001 400.64 357.9865600000001 400.64 361.5630600000001 C 400.64 365.23936000000015 401.23616 368.71696000000014 402.5278 371.9960600000001 C 403.8195 375.27496000000014 405.608 378.1563600000001 407.99260000000004 380.54106000000013 C 410.27790000000005 383.0250600000001 413.06000000000006 385.01226000000014 416.33880000000005 386.4032600000001 C 419.51830000000007 387.7942600000001 423.09530000000007 388.4898600000001 427.06980000000004 388.4898600000001 z M 444.85 358.09000000000003 L 409.677 358.09000000000003 C 409.87572 355.70540000000005 410.37253000000004 353.42010000000005 411.3661 351.3335 C 412.35971 349.34630000000004 413.552 347.55780000000004 415.1418 346.0674 C 416.73159999999996 344.577 418.52 343.3847 420.6066 342.5898 C 422.5938 341.79492000000005 424.7797 341.29810000000003 427.1644 341.29810000000003 C 429.4497 341.29810000000003 431.6356 341.79490000000004 433.7222 342.5898 C 435.70939999999996 343.38468 437.49789999999996 344.577 439.0876 345.968 C 440.67740000000003 347.45840000000004 441.969 349.24690000000004 442.9626 351.33340000000004 C 443.9562 353.42 444.6517 355.70520000000005 444.85040000000004 358.08990000000006 z" stroke-linecap="round" />
</g>
		<g transform="matrix(1 0 0 1 -46.1 -2.29)" id="path343020"  >
<path style="stroke: none; stroke-width: 0; stroke-dasharray: none; stroke-linecap: butt; stroke-dashoffset: 0; stroke-linejoin: miter; stroke-miterlimit: 2; fill: rgb(255,255,255); fill-rule: nonzero; opacity: 1;"  transform=" translate(-465.9, -381.94)" d="M 462.22 387.5 L 469.5726 387.5 L 469.5726 376.372 L 462.22 376.372 z" stroke-linecap="round" />
</g>
		<g transform="matrix(1 0 0 1 -33.66 -23.75)" id="path343022"  >
<path style="stroke: none; stroke-width: 0; stroke-dasharray: none; stroke-linecap: butt; stroke-dashoffset: 0; stroke-linejoin: miter; stroke-miterlimit: 2; fill: rgb(255,255,255); fill-rule: nonzero; opacity: 1;"  transform=" translate(-478.34, -360.47)" d="M 476.25 405.98 C 478.3366 405.98 480.3238 405.58256 482.311 404.78770000000003 C 484.1988 403.99282000000005 485.888 402.80050000000006 487.3784 401.31010000000003 C 488.8688 399.8197 490.0611 398.0312 490.9554 395.9447 C 491.84963 393.95750000000004 492.3464 391.67220000000003 492.3464 389.1882 L 492.3464 335.6332 L 483.6027 335.6332 L 483.6027 389.7842 C 483.6027 390.9765 483.30462 392.1688 482.90719 393.1624 C 482.41038000000003 394.2554 481.81419 395.14959999999996 481.01939 395.8451 C 480.2245 396.63998 479.33029 397.2361 478.33669 397.6336 C 477.34308999999996 398.03104 476.25009 398.22976 475.25649 398.22976 C 474.06419 398.22976 472.77249 398.13036 471.58018999999996 397.73296 C 470.38788999999997 397.43487999999996 469.29488999999995 396.83871999999997 468.40068999999994 395.94446 L 464.32688999999993 401.80665999999997 C 465.91668999999996 403.29706 467.7050899999999 404.39005999999995 469.69228999999996 404.98616 C 471.67948999999993 405.68168 473.86538999999993 405.97976 476.25008999999994 405.97976 z M 483.6026 325.896 L 492.3463 325.896 L 492.3463 314.966 L 483.6026 314.966 z" stroke-linecap="round" />
</g>
		<g transform="matrix(1 0 0 1 11.48 -22.61)" id="path343024"  >
<path style="stroke: none; stroke-width: 0; stroke-dasharray: none; stroke-linecap: butt; stroke-dashoffset: 0; stroke-linejoin: miter; stroke-miterlimit: 2; fill: rgb(255,255,255); fill-rule: nonzero; opacity: 1;"  transform=" translate(-523.48, -361.61)" d="M 524.57 388.49 C 530.8297 388.49 535.798 387.099 539.5730000000001 384.21750000000003 C 543.2493000000001 381.4354 545.1372000000001 377.5604 545.1372000000001 372.6915 C 545.1372000000001 370.5056 544.6404000000001 368.7171 543.8455000000001 367.1273 C 543.0506200000001 365.63689999999997 541.7589000000002 364.3452 540.0698000000001 363.1529 C 538.3807 362.05989999999997 536.2941000000001 361.0663 533.7108000000001 360.2715 C 531.1274000000001 359.47662 528.1466 358.5824 524.7684 357.7875 C 522.5825000000001 357.2907 520.6946 356.7939 519.1049 356.2971 C 517.5151000000001 355.89966 516.3228 355.3035 515.3292 354.7073 C 514.3356 354.11114 513.5407 353.4156 513.1433000000001 352.6207 C 512.7458600000001 351.82582 512.54714 350.8322 512.54714 349.6399 C 512.54714 346.6591 513.64014 344.5725 515.82604 343.1815 C 518.0119400000001 341.79050000000007 520.79404 341.09490000000005 523.9735400000001 341.09490000000005 C 526.7556400000001 341.09490000000005 529.5377400000001 341.59170000000006 532.31974 342.5853000000001 C 535.00244 343.5789000000001 537.48644 344.96990000000005 539.6723400000001 346.85780000000005 L 543.64674 341.59170000000006 C 541.26214 339.6045000000001 538.48004 337.91540000000003 535.1017400000001 336.62370000000004 C 531.7235400000001 335.43140000000005 528.04714 334.7359 524.1717400000001 334.7359 C 521.3896400000001 334.7359 518.7069400000001 335.13334000000003 516.3223400000002 335.82890000000003 C 513.9377400000002 336.52442 511.85114000000016 337.51800000000003 510.06264000000016 338.9091 C 508.27414000000016 340.30010000000004 506.78374000000014 341.9893 505.7901400000002 343.97650000000004 C 504.7965400000002 345.9637000000001 504.29974000000016 348.249 504.29974000000016 350.83230000000003 C 504.29974000000016 352.9189 504.5978200000002 354.608 505.29334000000017 355.999 C 505.88950000000017 357.39000000000004 506.98244000000017 358.5824 508.4728400000002 359.576 C 509.8638400000002 360.56960000000004 511.7517400000002 361.46380000000005 514.0370400000002 362.1594 C 516.2229400000001 362.95428 518.9056400000002 363.6498 522.0852400000001 364.4447 C 524.4698400000001 365.04086 526.6558400000001 365.637 528.5436400000001 366.1338 C 530.3321400000001 366.72996 531.9218400000001 367.3261 533.1142400000001 367.9223 C 534.3065400000002 368.61782 535.2008400000001 369.41270000000003 535.7969400000001 370.3069 C 536.3931000000001 371.20114 536.69118 372.29409999999996 536.69118 373.4864 C 536.69118 376.2685 535.49888 378.355 533.31298 379.8454 C 531.1270800000001 381.33579999999995 528.14628 382.0313 524.37058 382.0313 C 520.99238 382.0313 517.71348 381.5345 514.7326800000001 380.3422 C 511.6524800000001 379.1499 508.57238000000007 377.4608 505.5915800000001 375.0761 L 501.8158800000001 380.93829999999997 C 504.6972800000001 383.42229999999995 508.1748800000001 385.3101 512.2488800000001 386.60179999999997 C 516.22328 387.89349999999996 520.3963800000001 388.4896 524.5698800000001 388.4896 z" stroke-linecap="round" />
</g>
		<g transform="matrix(1 0 0 1 91.72 -31.9)" id="path343026"  >
<path style="stroke: none; stroke-width: 0; stroke-dasharray: none; stroke-linecap: butt; stroke-dashoffset: 0; stroke-linejoin: miter; stroke-miterlimit: 2; fill: rgb(255,255,255); fill-rule: nonzero; opacity: 1;"  transform=" translate(-603.72, -352.33)" d="M 623.54 331.76 L 627.7130999999999 324.50669999999997 C 624.7322999999999 322.1221 621.2547 320.13489999999996 617.4790999999999 318.6445 C 613.6040999999999 317.2535 609.3315999999999 316.4586 604.5620999999999 316.4586 C 600.8857999999999 316.4586 597.5074999999998 316.9554 594.4270999999999 317.8496 C 591.2475999999999 318.74384000000003 588.5648999999999 320.0355 586.3788999999999 321.824 C 584.0935999999999 323.6125 582.3050999999999 325.7984 581.1127999999999 328.3818 C 579.8210999999999 330.9652 579.2249999999999 333.946 579.2249999999999 337.3242 C 579.2249999999999 340.10630000000003 579.6224399999999 342.4909 580.6159999999999 344.47810000000004 C 581.5102399999998 346.4653 582.9012999999999 348.15440000000007 584.6897999999999 349.54550000000006 C 586.4782999999999 350.9365000000001 588.7635999999999 352.12890000000004 591.5455999999999 353.12250000000006 C 594.2282999999999 354.1161000000001 597.4078 355.10970000000003 600.9848 355.9046000000001 C 604.1642999999999 356.69948000000005 607.0458 357.4944000000001 609.6291 358.28920000000005 C 612.2125 359.08408000000003 614.299 359.8790000000001 616.0875 360.87260000000003 C 617.7766 361.86620000000005 619.0683 363.05850000000004 619.9625 364.44960000000003 C 620.85674 365.84060000000005 621.3534999999999 367.4304 621.3534999999999 369.41760000000005 C 621.3534999999999 372.99460000000005 619.9625 375.67730000000006 617.1804 377.46580000000006 C 614.3983 379.25430000000006 610.4239 380.14850000000007 605.4563999999999 380.14850000000007 C 602.6742999999999 380.14850000000007 600.0909999999999 379.9497800000001 597.607 379.3536200000001 C 595.123 378.7574600000001 592.8376999999999 378.0619200000001 590.6518 377.1677200000001 C 588.4659 376.27348000000006 586.578 375.27992000000006 584.8889 374.0875200000001 C 583.1998 372.9945200000001 581.8087 371.9016200000001 580.8151 370.7093200000001 L 576.5426 378.2607200000001 C 580.5169999999999 381.5396200000001 584.8888 384.0236200000001 589.7576 385.7127200000001 C 594.6262 387.4018200000001 599.7926 388.1967200000001 605.2576 388.1967200000001 C 608.8346 388.1967200000001 612.2128 387.89864000000006 615.3926 387.10372000000007 C 618.4728 386.3088400000001 621.1555 385.1165200000001 623.4408 383.52672000000007 C 625.7261 381.93692000000004 627.5146 379.85042000000004 628.9055999999999 377.36642000000006 C 630.1972999999999 374.8824200000001 630.8928 371.90162000000004 630.8928 368.52342000000004 C 630.8928 365.34392 630.2966399999999 362.66122000000007 629.2036999999999 360.47522000000004 C 628.1107 358.28932000000003 626.521 356.50082000000003 624.4343999999999 354.91102 C 622.3477999999999 353.42062 619.8637999999999 352.12892 616.8829999999999 351.13532000000004 C 613.9022 350.1417200000001 610.6233 349.14812000000006 607.0464 348.35322 C 603.8669 347.65770000000003 601.0848 346.96222 598.7995 346.26662000000005 C 596.4149 345.67046000000005 594.5269999999999 344.87562 592.9372999999999 343.98132000000004 C 591.3475 343.08708 590.2546 341.99412000000007 589.5591 340.70242 C 588.7642199999999 339.51012000000003 588.4661 337.92032 588.4661 335.93312000000003 C 588.4661 332.35612000000003 589.6584 329.57412000000005 592.2418 327.48752 C 594.8252 325.50032000000004 598.7996 324.40732 604.3638 324.40732 C 606.4504 324.40732 608.4376 324.70540000000005 610.4248 325.10284 C 612.412 325.50028 614.2005 326.09644000000003 615.8896 326.79194 C 617.4793999999999 327.48746 618.9698 328.28234000000003 620.3607999999999 329.07724 C 621.6524999999999 329.97148000000004 622.7453999999999 330.86574 623.5402999999999 331.75994000000003 z" stroke-linecap="round" />
</g>
		<g transform="matrix(1 0 0 1 159.92 -32.01)" id="path343028"  >
<path style="stroke: none; stroke-width: 0; stroke-dasharray: none; stroke-linecap: butt; stroke-dashoffset: 0; stroke-linejoin: miter; stroke-miterlimit: 2; fill: rgb(255,255,255); fill-rule: nonzero; opacity: 1;"  transform=" translate(-671.91, -352.22)" d="M 698.99 338.51 C 697.599 334.2375 695.413 330.4618 692.631 327.282 C 689.7496 324.2018 686.1726 321.6185 681.9 319.7306 C 677.6274999999999 317.9421 672.6595 316.94849999999997 667.095 316.94849999999997 L 642.652 316.94849999999997 L 642.652 324.8973 L 667.095 324.8973 C 671.0694 324.8973 674.547 325.59281999999996 677.727 326.98389999999995 C 680.8072 328.37489999999997 683.3905 330.26279999999997 685.5763999999999 332.5481 C 687.7622999999999 334.93269999999995 689.3521 337.81419999999997 690.4449999999999 341.19239999999996 C 691.5379999999999 344.57059999999996 692.1341 348.24699999999996 692.1341 352.12239999999997 C 692.1341 356.0968 691.5379399999999 359.67379999999997 690.4449999999999 363.0524 C 689.352 366.43059999999997 687.7623 369.3121 685.6756999999999 371.69669999999996 C 683.5890999999999 374.18069999999994 681.0057999999999 376.1679 677.8263 377.45959999999997 C 674.6468 378.8506 671.0698 379.54619999999994 667.0953 379.54619999999994 L 651.5953 379.54619999999994 L 651.5953 334.33719999999994 L 642.6528999999999 334.33719999999994 L 642.6528999999999 387.49519999999995 L 667.0958999999999 387.49519999999995 C 672.2625999999999 387.49519999999995 676.9324999999999 386.70032 681.1058999999999 385.0112 C 685.2789999999999 383.3221 688.9552999999999 380.93739999999997 691.9359 377.85729999999995 C 694.9167 374.77709999999996 697.202 371.10079999999994 698.7917 366.72929999999997 C 700.3815 362.35749999999996 701.1763 357.48879999999997 701.1763 352.1233 C 701.1763 347.354 700.38141 342.78349999999995 698.9904 338.51129999999995 z" stroke-linecap="round" />
</g>
		<g transform="matrix(1 0 0 1 230.14 -32)" id="path343030"  >
<path style="stroke: none; stroke-width: 0; stroke-dasharray: none; stroke-linecap: butt; stroke-dashoffset: 0; stroke-linejoin: miter; stroke-miterlimit: 2; fill: rgb(255,255,255); fill-rule: nonzero; opacity: 1;"  transform=" translate(-742.14, -352.22)" d="M 722.81 317.05 L 713.8675999999999 317.05 L 713.8675999999999 354.012 L 722.81 344.3741 z M 740.496 348.05 L 768.814 316.95 L 759.1761 316.95 L 722.8101 355.998 L 713.8677 365.53659999999996 L 713.8677 387.49559999999997 L 722.8101 387.49559999999997 L 722.8101 365.9346 L 735.0311 353.21659999999997 L 760.6661 387.49559999999997 L 770.4034 387.49559999999997 z" stroke-linecap="round" />
</g>
		<g transform="matrix(1 0 0 1 282.39 -22.61)" id="path343032"  >
<path style="stroke: none; stroke-width: 0; stroke-dasharray: none; stroke-linecap: butt; stroke-dashoffset: 0; stroke-linejoin: miter; stroke-miterlimit: 2; fill: rgb(255,255,255); fill-rule: nonzero; opacity: 1;"  transform=" translate(-794.39, -361.61)" d="M 795.48 388.49 C 801.7397 388.49 806.708 387.099 810.4830000000001 384.21750000000003 C 814.1593 381.4354 816.0472000000001 377.5604 816.0472000000001 372.6915 C 816.0472000000001 370.5056 815.5504000000001 368.7171 814.7555000000001 367.1273 C 813.9606200000001 365.63689999999997 812.6689000000001 364.3452 810.9798000000001 363.1529 C 809.2907 362.05989999999997 807.2041 361.0663 804.6208 360.2715 C 802.0374 359.47662 799.0566 358.5824 795.6784 357.7875 C 793.4925000000001 357.2907 791.6046 356.7939 790.0149 356.2971 C 788.4251 355.89966 787.2328 355.3035 786.2392 354.7073 C 785.2456 354.11114 784.4507 353.4156 784.0533 352.6207 C 783.6558600000001 351.82582 783.45714 350.8322 783.45714 349.6399 C 783.45714 346.6591 784.5501399999999 344.5725 786.73604 343.1815 C 788.9219400000001 341.79050000000007 791.70404 341.09490000000005 794.88354 341.09490000000005 C 797.66564 341.09490000000005 800.4477400000001 341.59170000000006 803.22974 342.5853000000001 C 805.91244 343.5789000000001 808.39644 344.96990000000005 810.58234 346.85780000000005 L 814.55674 341.59170000000006 C 812.17214 339.6045000000001 809.39004 337.91540000000003 806.01174 336.62370000000004 C 802.63354 335.43140000000005 798.95714 334.7359 795.0817400000001 334.7359 C 792.2996400000001 334.7359 789.6169400000001 335.13334000000003 787.2323400000001 335.82890000000003 C 784.8477400000002 336.52442 782.7611400000002 337.51800000000003 780.9726400000002 338.9091 C 779.1841400000002 340.30010000000004 777.6937400000002 341.9893 776.7001400000001 343.97650000000004 C 775.7065400000001 345.9637000000001 775.2097400000001 348.249 775.2097400000001 350.83230000000003 C 775.2097400000001 352.9189 775.5078200000002 354.608 776.2033400000001 355.999 C 776.7995000000002 357.39000000000004 777.8924400000002 358.5824 779.3828400000001 359.576 C 780.7738400000001 360.56960000000004 782.6617400000001 361.46380000000005 784.9470400000001 362.1594 C 787.1329400000001 362.95428 789.8156400000001 363.6498 792.9952400000001 364.4447 C 795.3798400000001 365.04086 797.5658400000001 365.637 799.4536400000001 366.1338 C 801.2421400000001 366.72996 802.83184 367.3261 804.0242400000001 367.9223 C 805.2165400000001 368.61782 806.11084 369.41270000000003 806.70694 370.3069 C 807.3031000000001 371.20114 807.60118 372.29409999999996 807.60118 373.4864 C 807.60118 376.2685 806.40888 378.355 804.22298 379.8454 C 802.0370800000001 381.33579999999995 799.05628 382.0313 795.28058 382.0313 C 791.90238 382.0313 788.62348 381.5345 785.64268 380.3422 C 782.56248 379.1499 779.48238 377.4608 776.50158 375.0761 L 772.72588 380.93829999999997 C 775.60728 383.42229999999995 779.08488 385.3101 783.15888 386.60179999999997 C 787.1332799999999 387.89349999999996 791.30638 388.4896 795.47988 388.4896 z" stroke-linecap="round" />
</g>
</g>
</g>
</svg>
